<?xml version="1.0" standalone="no"?>
<!DOCTYPE svg PUBLIC "-//W3C//DTD SVG 20010904//EN"
 "http://www.w3.org/TR/2001/REC-SVG-20010904/DTD/svg10.dtd">
<svg version="1.0" xmlns="http://www.w3.org/2000/svg"
 width="280.000000pt" height="280.000000pt" viewBox="0 0 280.000000 280.000000"
 preserveAspectRatio="xMidYMid meet">
<metadata>
Created by potrace 1.11, written by Peter Selinger 2001-2013
</metadata>
<g transform="translate(0.000000,280.000000) scale(0.100000,-0.100000)"
fill="#000000" stroke="none">
<path d="M156 2188 c4 -7 48 -65 98 -128 288 -368 261 -332 376 -480 45 -58
84 -110 87 -117 5 -13 -9 -34 -282 -418 -104 -146 -197 -276 -205 -288 -8 -12
-36 -52 -62 -89 l-48 -68 285 0 284 0 28 48 c15 26 51 84 80 130 29 45 53 85
53 88 0 3 15 29 34 57 65 101 106 167 106 175 1 4 11 20 24 35 l23 28 36 -54
36 -55 0 -213 c0 -118 0 -220 1 -227 0 -10 73 -12 347 -10 l346 3 1 223 c1
123 -2 229 -6 235 -4 6 -48 11 -110 11 l-103 1 0 325 0 325 100 1 c55 0 105 3
110 6 8 5 12 399 6 461 -1 4 -156 7 -346 7 l-345 0 -1 -22 c0 -13 0 -141 0
-285 1 -145 -2 -263 -6 -263 -5 0 -22 22 -38 48 -17 26 -102 154 -190 284
l-160 238 -283 0 c-224 0 -282 -3 -276 -12z"/>
<path d="M1987 2193 c-7 -15 -2 -451 5 -459 5 -4 56 -8 115 -8 l108 -1 3 -326
2 -325 -107 -1 c-60 -1 -113 -2 -118 -2 -7 -1 -10 -84 -10 -233 l0 -233 348
-3 347 -2 0 800 0 800 -344 0 c-190 0 -347 -3 -349 -7z"/>
</g>
</svg>
