<svg xmlns="http://www.w3.org/2000/svg" class="icon" viewBox="0 0 28 28">
  <g id="github">
    <path d="M14 0C6.3 0 0 6.3 0 14c0 6.2 4 11.4 9.6 13.3.7.1 1-.3 1-.7v-2.4c-3.9.8-4.7-1.9-4.7-1.9-.6-1.6-1.6-2-1.6-2-1.3-.9.1-.9.1-.9 1.4.1 2.1 1.4 2.1 1.4 1.2 2.1 3.3 1.5 4.1 1.2.1-.9.5-1.5.9-1.9-3.1-.4-6.4-1.6-6.4-6.9 0-1.5.5-2.8 1.4-3.8-.1-.2-.6-1.7.1-3.6 0 0 1.2-.4 3.8 1.4 1.1-.3 2.3-.5 3.5-.5 1.2 0 2.4.2 3.5.5 2.7-1.8 3.8-1.4 3.8-1.4.8 1.9.3 3.4.1 3.7.9 1 1.4 2.2 1.4 3.8 0 5.4-3.3 6.6-6.4 6.9.5.4 1 1.3 1 2.6v3.8c0 .4.3.8 1 .7C24 25.4 28 20.2 28 14c0-7.7-6.3-14-14-14z"/>
  </g>
</svg>