<svg xmlns="http://www.w3.org/2000/svg" class="icon" viewBox="0 0 28 23.1">
  <g id="twitter">
    <path d="M8.82 22.74c10.6 0 16.3-8.8 16.3-16.3v-.7c1.1-.8 2.1-1.8 2.9-3-1 .5-2.1.8-3.3.9 1.2-.7 2.1-1.8 2.5-3.2-1.1.7-2.3 1.1-3.6 1.4-1-1.1-2.5-1.8-4.2-1.8-3.2 0-5.7 2.6-5.7 5.7 0 .5.1.9.1 1.3-4.8-.2-9-2.5-11.8-6-.5.8-.8 1.8-.8 2.9 0 2 1 3.8 2.6 4.8-.9 0-1.8-.3-2.6-.7v.1c0 2.8 2 5.1 4.6 5.6-.5.1-1 .2-1.5.2-.4 0-.7 0-1.1-.1.7 2.3 2.9 3.9 5.4 4-2 1.5-4.4 2.5-7.1 2.5-.5 0-.9 0-1.4-.1 2.4 1.6 5.4 2.5 8.7 2.5"/>
  </g>
</svg>